<svg xmlns="http://www.w3.org/2000/svg" viewBox="0 0 42 50">
  <g fill="#FFF" opacity=".902">
    <path d="M23.5390625,5.4453125 L21.875,5.4453125 L21.875,3.78125 C21.875,3.34977754 21.5252225,3 21.09375,3 C20.6622775,3 20.3125,3.34977754 20.3125,3.78125 L20.3125,5.4453125 L18.6484375,5.4453125 C18.216965,5.44531251 17.8671875,5.79509005 17.8671875,6.2265625 C17.8671875,6.65803495 18.216965,7.00781249 18.6484375,7.0078125 L20.3125,7.0078125 L20.3125,8.671875 C20.3125,9.10334746 20.6622775,9.453125 21.09375,9.453125 C21.5252225,9.453125 21.875,9.10334746 21.875,8.671875 L21.875,7.0078125 L23.5390625,7.0078125 C23.970535,7.0078125 24.3203125,6.65803496 24.3203125,6.2265625 C24.3203125,5.79509004 23.970535,5.4453125 23.5390625,5.4453125 Z"/>
    <path d="M28.3984375,29.7695313 C28.3394062,29.7367955 28.2763813,29.7118481 28.2109375,29.6953125 C27.3826293,29.3939489 26.5358376,29.1460438 25.6757813,28.953125 C29.3214489,27.1884058 31.6381537,23.495636 31.640625,19.4453125 L31.640625,5.2265625 C31.6384862,2.34546999 29.3068617,0.00860590753 26.4257813,0 L15.7617188,0 C12.8806383,0.00860590753 10.5490138,2.34546999 10.546875,5.2265625 L10.546875,19.4453125 C10.5500231,23.4996988 12.87194,27.195037 16.5234375,28.9570313 C15.6557234,29.1451324 14.8010767,29.3891308 13.9648438,29.6875 C13.9078173,29.7033492 13.8527767,29.7256276 13.8007813,29.7539063 C5.69330997,32.8038768 0.322590567,40.5565694 0.31640625,49.21875 C0.31640625,49.6502225 0.666183789,50 1.09765625,50 C1.52912871,50 1.87890625,49.6502225 1.87890625,49.21875 C1.88460055,41.8421913 6.10764754,35.1183964 12.75,31.9101563 C12.3282678,33.5151397 12.0305159,35.150163 11.859375,36.8007813 C9.419123,37.2119474 7.63057815,39.3222323 7.625,41.796875 L7.625,47.7851563 C7.66189498,47.912751 7.66189498,48.0481865 7.625,48.1757813 C7.625,49.1832694 8.44173055,50 9.44921875,50 C9.88069121,50 10.2304688,49.6502225 10.2304688,49.21875 C10.2304688,48.7872775 9.88069121,48.4375 9.44921875,48.4375 C9.30467548,48.4375 9.1875,48.3203245 9.1875,48.1757813 C9.15060502,48.0481865 9.15060502,47.912751 9.1875,47.7851563 L9.1875,41.796875 C9.1875,39.8552489 10.7614989,38.28125 12.703125,38.28125 C14.6447511,38.28125 16.21875,39.8552489 16.21875,41.796875 L16.21875,47.7851563 C16.255645,47.912751 16.255645,48.0481865 16.21875,48.1757813 C16.21875,48.3203245 16.1015745,48.4375 15.9570313,48.4375 C15.5255588,48.4375 15.1757813,48.7872775 15.1757813,49.21875 C15.1757813,49.6502225 15.5255588,50 15.9570313,50 C16.9645194,50 17.78125,49.1832694 17.78125,48.1757813 C17.744355,48.0481865 17.744355,47.912751 17.78125,47.7851563 L17.78125,41.796875 C17.77451,39.2796297 15.9246701,37.1472446 13.4335938,36.7851563 C13.6210938,35.15625 14.0625,32.4414063 14.6992188,31.1015625 L14.8203125,31.0585938 L20.4648438,38.7578125 C20.6119405,38.9591808 20.8463306,39.0782285 21.0957031,39.0782285 C21.3450757,39.0782285 21.5794657,38.9591808 21.7265625,38.7578125 L27.3632813,31.0585938 L27.5117188,31.109375 C28.890625,33.5039063 29.4453125,37.171875 29.625,38.7265625 C27.7499194,39.1641108 26.5079495,40.946925 26.747283,42.8574473 C26.9866166,44.7679695 28.6299782,46.1893345 30.5550479,46.1508331 C32.4801177,46.1123317 34.0653332,44.6263952 34.228085,42.7078312 C34.3908369,40.7892672 33.0785761,39.0575377 31.1875,38.6953125 C30.9625924,36.4208641 30.4588108,34.1827096 29.6875,32.03125 C36.2002055,35.2856031 40.317269,41.9382212 40.3242188,49.21875 C40.3242188,49.6502225 40.6739963,50 41.1054688,50 C41.5369412,50 41.8867188,49.6502225 41.8867188,49.21875 C41.8734241,40.5612989 36.5021038,32.8162065 28.3984375,29.7695313 Z M32.6953125,42.390625 C32.6952438,43.6043112 31.7135958,44.5893536 30.499917,44.5936118 C29.2862383,44.5978699 28.2977025,43.6197398 28.2891176,42.4060839 C28.2805327,41.1924281 29.2551325,40.2004116 30.46875,40.1875 C31.0547672,40.1854247 31.6175506,40.4164979 32.0330277,40.8297766 C32.4485047,41.2430554 32.6825602,41.804605 32.6835938,42.390625 L32.6953125,42.390625 Z M30.078125,14.9921875 C25.2265625,14.8164062 22.2265625,13.34375 20.6328125,12.2304688 L30.078125,12.2304688 L30.078125,14.9921875 Z M12.109375,5.2265625 C12.111506,3.20840989 13.7435833,1.57109591 15.7617188,1.5625 L26.4257813,1.5625 C28.4439167,1.57109591 30.075994,3.20840989 30.078125,5.2265625 L30.078125,10.6640625 L12.109375,10.6640625 L12.109375,5.2265625 Z M12.109375,19.4453125 L12.109375,12.2265625 L18.2226563,12.2265625 C19.1601563,13.2265625 22.65625,16.3046875 30.078125,16.5546875 L30.078125,19.4453125 C30.078125,24.4126392 26.0513111,28.4394531 21.0839844,28.4394531 C16.1166577,28.4394531 12.0898438,24.4126392 12.0898438,19.4453125 L12.109375,19.4453125 Z M21.09375,36.9726562 L16.40625,30.5820312 C19.4832582,29.8075011 22.7042418,29.8075011 25.78125,30.5820312 L21.09375,36.9726562 Z"/>
  </g>
</svg>
