<svg xmlns="http://www.w3.org/2000/svg" viewBox="0 0 50 50">
  <g fill="#FFF" opacity=".902">
    <path d="M49.2424242,43.2339755 L47.9092685,43.2339755 L47.9092685,15.0457209 C47.9092685,14.6273527 47.5704309,14.2881452 47.1516927,14.2881452 L38.5024562,14.2881452 L38.5024562,7.37526636 L40.7751835,7.37526636 C41.1939217,7.37526636 41.5327592,7.03605886 41.5327592,6.61769061 L41.5327592,0.757575758 C41.5327592,0.3392075 41.1939217,0 40.7751835,0 L9.22481652,0 C8.80607833,0 8.46724076,0.3392075 8.46724076,0.757575758 L8.46724076,6.61769061 C8.46724076,7.03605886 8.80607833,7.37526636 9.22481652,7.37526636 L11.4975438,7.37526636 L11.4975438,14.2884688 L2.84830727,14.2881452 C2.64707621,14.2881452 2.45472303,14.3680458 2.31267758,14.5100912 C2.17063212,14.6521367 2.09073152,14.8448598 2.09073152,15.0457209 L2.09073152,43.2339755 L0.757575758,43.2339755 C0.338837576,43.2339755 0,43.573183 0,43.9915513 L0,49.2424242 C0,49.6607925 0.338837576,50 0.757575758,50 L49.2424242,50 C49.6611624,50 50,49.6607925 50,49.2424242 L50,43.9915513 C50,43.573183 49.6611624,43.2339755 49.2424242,43.2339755 Z M46.394117,15.8032966 L46.394117,43.2339755 L38.5024562,43.2339755 L38.5024562,38.2150361 L42.401308,38.2150361 C42.8200462,38.2150361 43.1588838,37.8758286 43.1588838,37.4574604 L43.1588838,32.3822946 C43.1588838,31.9639264 42.8200462,31.6247189 42.401308,31.6247189 L38.5024562,31.6247189 L38.5024562,27.4125533 L42.401308,27.4125533 C42.8200462,27.4125533 43.1588838,27.0733458 43.1588838,26.6549775 L43.1588838,21.5798117 C43.1588838,21.1614435 42.8200462,20.822236 42.401308,20.822236 L38.5024562,20.822236 L38.5024562,15.8032966 L46.394117,15.8032966 Z M38.5024562,22.3373876 L41.6437323,22.3373876 L41.6437323,25.8974018 L38.5024562,25.8974018 L38.5024562,22.3373876 Z M38.5024562,33.1398704 L41.6437323,33.1398704 L41.6437323,36.6998846 L38.5024562,36.6998846 L38.5024562,33.1398704 Z M9.98239227,1.51515152 L40.0176077,1.51515152 L40.0176077,5.86011485 L37.7448805,5.86011485 L12.2551195,5.86011485 L9.98239227,5.86011485 L9.98239227,1.51515152 Z M36.9873047,7.37526636 L36.9873047,15.0457209 L36.9873047,21.5798118 L36.9873047,26.6549776 L36.9873047,32.3822947 L36.9873047,37.4574605 L36.9873047,43.2339756 L31.7316229,43.2339756 L31.7316229,35.4140773 C31.7316229,31.7020301 28.7116773,28.6820845 25,28.6820845 C21.2883227,28.6820845 18.2683771,31.70203 18.2683771,35.4140773 L18.2683771,43.2339755 L13.0126953,43.2339756 L13.0126953,37.4574603 L13.0126953,32.3822945 L13.0126953,26.6549774 L13.0126953,21.5801816 L13.0126953,15.0460907 L13.0126953,7.37526636 L36.9873047,7.37526636 Z M30.2164714,43.2339755 L19.7835286,43.2339755 L19.7835286,35.4140773 C19.7835286,32.5376568 22.1235795,30.197236 25,30.197236 C27.8764205,30.197236 30.2164714,32.5376568 30.2164714,35.4140773 L30.2164714,43.2339755 Z M11.4975438,36.6998846 L8.35626773,36.6998846 L8.35626773,33.1398704 L11.4975438,33.1398704 L11.4975438,36.6998846 Z M11.4975438,25.8974017 L8.35626773,25.8974017 L8.35626773,22.3377574 L11.4975438,22.3377574 L11.4975438,25.8974017 Z M3.60588303,15.8032967 L11.4975438,15.8036666 L11.4975438,20.822606 L7.59869197,20.822606 C7.17995379,20.822606 6.84111621,21.1618135 6.84111621,21.5801817 L6.84111621,26.6549776 C6.84111621,27.0733458 7.17995379,27.4125533 7.59869197,27.4125533 L11.4975438,27.4125533 L11.4975438,31.6247189 L7.59869197,31.6247189 C7.17995379,31.6247189 6.84111621,31.9639264 6.84111621,32.3822947 L6.84111621,37.4574605 C6.84111621,37.8758287 7.17995379,38.2150362 7.59869197,38.2150362 L11.4975438,38.2150362 L11.4975438,43.2339756 L3.60588303,43.2339756 L3.60588303,15.8032967 Z M48.4848485,48.4848485 L1.51515152,48.4848485 L1.51515152,44.749127 L2.84830727,44.749127 L12.2551195,44.749127 L19.0259529,44.749127 L30.9740471,44.749127 L37.7448805,44.749127 L47.1516927,44.749127 L48.4848485,44.749127 L48.4848485,48.4848485 Z"/>
    <path d="M18.1426077,21.0123698 L22.545277,21.0123698 L22.545277,25.4154089 C22.545277,25.8337772 22.8841145,26.1729847 23.3028527,26.1729847 L26.6971473,26.1729847 C27.1158855,26.1729847 27.454723,25.8337772 27.454723,25.4154089 L27.454723,21.0123698 L31.8573923,21.0123698 C32.2761305,21.0123698 32.614968,20.6731623 32.614968,20.254794 L32.614968,16.8604995 C32.614968,16.4421312 32.2761305,16.1029237 31.8573923,16.1029237 L27.454723,16.1029237 L27.454723,11.6998845 C27.454723,11.2815163 27.1158855,10.9423088 26.6971473,10.9423088 L23.3028527,10.9423088 C22.8841145,10.9423088 22.545277,11.2815163 22.545277,11.6998845 L22.545277,16.1029237 L18.1426077,16.1029237 C17.7238695,16.1029237 17.385032,16.4421312 17.385032,16.8604995 L17.385032,20.254794 C17.385032,20.6731623 17.7238695,21.0123698 18.1426077,21.0123698 Z M18.9001835,17.6180753 L23.3028527,17.6180753 C23.7215909,17.6180753 24.0604285,17.2788678 24.0604285,16.8604995 L24.0604285,12.4574604 L25.9395715,12.4574604 L25.9395715,16.8604995 C25.9395715,17.2788678 26.2784091,17.6180753 26.6971473,17.6180753 L31.0998165,17.6180753 L31.0998165,19.4972183 L26.6971473,19.4972183 C26.2784091,19.4972183 25.9395715,19.8364258 25.9395715,20.2547941 L25.9395715,24.6578333 L24.0604285,24.6578333 L24.0604285,20.2547941 C24.0604285,19.8364258 23.7215909,19.4972183 23.3028527,19.4972183 L18.9001835,19.4972183 L18.9001835,17.6180753 Z"/>
  </g>
</svg>
