<svg xmlns="http://www.w3.org/2000/svg" width="38" height="50" viewBox="0 0 38 50">
  <path fill="#000" d="M28.194.374c.623 0 .948.192 1.469.705l6.902 6.81c.477.471.713.938.713 1.568v37.917c0 1.325-1.075 2.416-2.398 2.416H2.75c-1.32 0-2.39-1.09-2.39-2.416V2.8C.36 1.476 1.43.374 2.75.374zm-.75 1.5H2.75c-.481 0-.89.42-.89.927v44.573c0 .504.404.916.89.916h32.13c.49 0 .898-.414.898-.916l-.001-37.168h-7.583a.75.75 0 0 1-.743-.648l-.007-.102V1.874zM17.778 35.79a.75.75 0 0 1 .101 1.493l-.102.007H9.444a.75.75 0 0 1-.102-1.493l.102-.007h8.333zm10.416-4.167a.75.75 0 0 1 .102 1.493l-.102.007H9.444a.75.75 0 0 1-.102-1.493l.102-.007h18.75zm0-4.167a.75.75 0 0 1 .102 1.494l-.102.006H9.444a.75.75 0 0 1-.102-1.493l.102-.007h18.75zm0-4.166a.75.75 0 0 1 .102 1.493l-.102.007H9.444a.75.75 0 0 1-.102-1.493l.102-.007h18.75zm4.167-8.334a.75.75 0 0 1 .102 1.494l-.102.006H5.278a.75.75 0 0 1-.102-1.493l.101-.007h27.084zM9.31 6.67a.75.75 0 0 1 .744.648l.007.102v1.333h1.333a.75.75 0 0 1 .102 1.493l-.102.007h-1.333v1.333a.75.75 0 0 1-1.493.102l-.007-.102v-1.333H7.229a.75.75 0 0 1-.102-1.493l.102-.007h1.333V7.419a.75.75 0 0 1 .75-.75zm19.633-4.191v6.228h6.313l-6.313-6.228z"/>
</svg>
