<svg xmlns="http://www.w3.org/2000/svg" viewBox="0 0 51 47">
  <g fill="#3BB338" stroke="#3BB338" transform="translate(1 1)">
    <path d="M2.75442478,0.1875 C1.33274336,0.1875 0.1875,1.33274336 0.1875,2.75442478 L0.1875,36.3219027 C0.1875,37.7435841 1.33274336,38.8888274 2.75442478,38.8888274 L17.9585177,38.8888274 C17.8795354,41.929646 17.2868597,42.6404867 15.272811,43.6277655 L10.6526549,43.6277655 C10.3367257,43.6277655 10.0602876,43.9042035 10.0602876,44.2201327 C10.0602876,44.5360619 10.3367257,44.8125 10.6526549,44.8125 L15.3915929,44.8125 L33.5575221,44.8125 L38.2964602,44.8125 C38.6123894,44.8125 38.8888274,44.5360619 38.8888274,44.2201327 C38.8888274,43.9042035 38.6123894,43.6277655 38.2964602,43.6277655 L33.7156411,43.6277655 C31.7015925,42.6404867 31.0694252,41.929646 31.0299341,38.8888274 L46.1946903,38.8888274 C47.6163717,38.8888274 48.761615,37.7435841 48.761615,36.3219027 L48.761615,2.75442478 C48.761615,1.33274336 47.6163717,0.1875 46.1946903,0.1875 L2.75442478,0.1875 Z M2.75442478,1.37223451 L46.1946903,1.37223451 C46.9450221,1.37223451 47.5768805,2.00409292 47.5768805,2.75442478 L47.5768805,36.3219027 C47.5768805,37.0722345 46.9450221,37.7040929 46.1946903,37.7040929 L30.3982301,37.7040929 L18.550885,37.7040929 L2.75442478,37.7040929 C2.00409292,37.7040929 1.37223451,37.0722345 1.37223451,36.3219027 L1.37223451,2.75442478 C1.37223451,2.00409292 2.00409292,1.37223451 2.75442478,1.37223451 Z M22.4606633,7.2172332 C22.1842252,7.2172332 21.9079412,7.37504379 21.8289589,7.65148184 L19.3800447,16.3001978 L17.6422801,9.58670223 C17.5632978,9.34975533 17.3663049,9.19117388 17.129358,9.15168272 C16.892411,9.11219157 16.6554641,9.23097345 16.5369907,9.46792035 L14.4043142,13.733273 L6.90099558,13.733273 C6.58506637,13.733273 6.30862832,14.0097111 6.30862832,14.3256403 C6.30862832,14.6415695 6.58506637,14.9180075 6.90099558,14.9180075 L14.7992257,14.9180075 C14.9966814,14.9180075 15.1944456,14.7992257 15.312919,14.6017699 L16.8925651,11.4031411 L18.7876774,18.6696668 C18.8271686,18.9066137 19.0642699,19.1039155 19.340708,19.1039155 C19.5776549,19.1039155 19.8147562,18.9066137 19.8937385,18.6696668 L22.1837624,10.6919916 L24.1189828,25.4618363 C24.1584739,25.7382743 24.3954208,25.9755297 24.71135,25.9755297 C24.9877881,25.9755297 25.2248894,25.8169482 25.2643805,25.5405102 L28.4630093,13.4170354 L29.5297332,18.2747553 C29.5692244,18.5117022 29.7663717,18.7088496 30.0033186,18.7483407 C30.2402655,18.7878319 30.4772124,18.6696668 30.5956858,18.4722111 L32.7283624,14.9180075 L42.0481195,14.9180075 C42.3640487,14.9180075 42.6404867,14.6415695 42.6404867,14.3256403 C42.6404867,14.0097111 42.3640487,13.733273 42.0481195,13.733273 L32.4121244,13.733273 C32.2146686,13.733273 32.0176757,13.8119469 31.8992022,14.0094027 L30.3588933,16.5369907 L29.1348217,10.7313287 C29.0953305,10.4548907 28.8582296,10.2577434 28.5817916,10.2577434 C28.3053535,10.2577434 28.0684066,10.4155536 27.9894243,10.6919916 L24.9088058,22.341881 L23.0136934,7.73015532 C22.9742022,7.45371727 22.7371013,7.25672436 22.4606633,7.2172332 Z M19.1039155,38.8888274 L29.7665261,38.8888274 C29.8455084,41.3372788 30.2399571,42.6009956 31.4641827,43.6277655 L17.4849323,43.6277655 C18.6696668,42.6009956 19.0644243,41.3372788 19.1039155,38.8888274 Z"/>
    <path stroke-width="2" d="M1.1789897,30.123236 L47.8099435,30.123236"/>
  </g>
</svg>
