<svg xmlns="http://www.w3.org/2000/svg" viewBox="0 0 49 47">
  <g fill="#3BB338" fill-rule="evenodd" stroke="#3BB338" stroke-width=".5" transform="translate(0 1)">
    <g transform="translate(0 25.28)">
      <path d="M22.0732584,12.1484831 L20.5761236,12.1484831 C20.5761236,10.4966292 21.9190449,9.15421348 23.5703933,9.15421348 L31.8048876,9.15421348 C32.6300562,9.15421348 33.3020225,8.48325843 33.3020225,7.65707865 C33.3020225,6.83140449 32.6300562,6.15994382 31.8048876,6.15994382 L24.9360674,6.15994382 L16.701573,3.16567416 L10.0956742,3.16567416 L10.0956742,1.66853933 L16.9644944,1.66853933 L25.1989888,4.66280899 L31.8048876,4.66280899 C33.456236,4.66280899 34.7991573,6.00623596 34.7991573,7.65707865 C34.7991573,9.30842697 33.456236,10.6513483 31.8048876,10.6513483 L23.5703933,10.6513483 C22.7452247,10.6513483 22.0732584,11.3233146 22.0732584,12.1484831 Z"/>
      <path d="M28.2448315,19.6346629 L26.4367416,19.6346629 L13.7103371,15.1432584 L10.0956742,15.1432584 L10.0956742,13.6461236 L13.9666854,13.6461236 L26.6930899,18.1375281 L27.8792697,18.1375281 L46.3171348,8.54949438 C46.5224157,8.31438202 46.7772472,7.91848315 46.7772472,7.65707865 C46.7772472,6.86629213 46.1608989,6.21657303 45.3832584,6.16398876 L33.525,9.8691573 L33.0795506,8.43926966 L45.2801124,4.66280899 C46.9314607,4.66280899 48.274382,6.00623596 48.274382,7.65707865 C48.274382,8.68348315 47.406236,9.58348315 47.3071348,9.68258427 L47.1225843,9.81808989 L28.2448315,19.6346629 Z"/>
      <path d="M9.34685393,16.6403933 L0.364044944,16.6403933 L0.364044944,15.1432584 L9.34735955,15.1432584 L9.34735955,1.66853933 L0.364044944,1.66853933 L0.364044944,0.171404494 L9.34735955,0.171404494 C10.1725281,0.171404494 10.8444944,0.843370787 10.8444944,1.66904494 L10.8444944,15.1432584 C10.8439888,15.9689326 10.1720225,16.6403933 9.34685393,16.6403933 Z"/>
    </g>
    <path fill-rule="nonzero" d="M27.3134831,25.6034831 L26.8983708,25.3269101 C26.3351124,24.951236 13.0904494,16.0235393 13.0904494,7.48617978 C13.0904494,3.35831461 16.448764,0 20.5761236,0 C23.5466292,0 26.1025281,1.68117978 27.3129775,3.63185393 C28.5244382,1.68117978 31.0803371,0 34.0508427,0 C38.1782022,0 41.5370225,3.35831461 41.5370225,7.48617978 C41.5370225,16.0230337 28.2928652,24.951236 27.7285955,25.3269101 L27.3134831,25.6034831 Z M20.5761236,1.49662921 C17.2739326,1.49662921 14.5870787,4.18348315 14.5870787,7.48567416 C14.5870787,14.4389326 25.0761236,22.2138202 27.3129775,23.7928652 C29.5493258,22.2138202 40.039382,14.4338764 40.039382,7.48567416 C40.039382,4.18348315 37.3530337,1.49662921 34.0503371,1.49662921 C30.6333708,1.49662921 28.0612921,4.49089888 28.0612921,5.98803371 L26.5641573,5.98803371 C26.5646629,4.49140449 23.9930899,1.49662921 20.5761236,1.49662921 Z"/>
  </g>
</svg>
