<svg xmlns="http://www.w3.org/2000/svg" viewBox="0 0 54 47">
  <path fill="#3BB338" stroke="#3BB338" stroke-width=".8" d="M178.903691,0.000572306789 C170.392662,-0.0697667742 165.117232,6.35453606 165,13.2477662 C165,18.4997507 168.610739,23.5876109 173.534475,28.7458108 C178.458209,33.9274563 184.741834,39.2028877 190.322067,44.8065674 C190.579977,45.0644775 191.025458,45.0644775 191.283368,44.8065674 C196.887047,39.2028877 203.147225,33.9274563 208.07096,28.7458108 C212.994696,23.5876109 216.605435,18.4997507 216.605435,13.2477662 C216.605435,4.97120075 210.298364,0.000572306789 203.381689,0.000572306789 C198.481399,0.000572306789 194.026592,4.40848814 190.81444,7.08137298 C187.508504,3.91611454 184.179121,0.0474650297 178.903691,0.000572306789 Z M178.903691,1.3135685 C182.748893,1.29012219 186.828559,5.29944985 190.392406,8.46470869 C190.62687,8.65227918 190.978565,8.65227918 191.213028,8.46470869 C194.589304,5.76837701 199.18479,1.3135685 203.381689,1.3135685 C209.688759,1.3135685 215.292439,5.62769887 215.292439,13.2477662 C215.292439,17.8901452 211.963056,22.7435424 207.133106,27.8314026 C202.420388,32.8020306 196.324335,37.9367842 190.81444,43.4232324 C185.2811,37.9367842 179.208493,32.8020306 174.495775,27.8314026 C172.760744,26.0260326 171.236731,24.2675553 169.994074,22.5090786 L172.268371,22.5090786 C172.502834,22.5090786 172.713852,22.391847 172.831083,22.2042759 L175.316398,18.2418412 L177.590695,27.9486342 C177.661034,28.2299906 177.94239,28.441008 178.223746,28.441008 C178.528549,28.441008 178.809905,28.2065443 178.880244,27.9251879 L182.045502,13.1774273 L184.179121,29.8712357 C184.226016,30.1760384 184.50737,30.4573948 184.812173,30.4573948 C185.116975,30.4808392 185.421778,30.2463774 185.492117,29.9415746 L188.04777,20.7037086 L189.501444,27.9251879 C189.618676,28.4644544 190.509638,28.5816859 190.744101,28.0893127 L193.205969,23.1655766 L198.551738,23.1655766 C198.809648,23.9393062 199.536485,24.4785727 200.404001,24.4785727 C201.50598,24.4785727 202.396941,23.6110572 202.396941,22.5090786 C202.396941,21.4070993 201.50598,20.5161381 200.404001,20.5161381 C199.536485,20.5161381 198.809648,21.0554039 198.551738,21.8525805 L192.783934,21.8525805 C192.549471,21.8291362 192.315008,21.9698121 192.197775,22.2042759 L190.415852,25.7681225 L188.798053,17.726021 C188.727715,17.4446646 188.469804,17.2102009 188.188448,17.2102009 C187.883646,17.2102009 187.60229,17.397772 187.508504,17.6791284 L185.093529,26.4246206 L182.866125,9.16809937 C182.81923,8.81640403 182.44409,8.53504763 182.092395,8.60538656 C181.834485,8.65228183 181.623468,8.86329665 181.553129,9.12120674 L178.223746,24.8068218 L176.230806,16.3895786 C176.090127,15.8972048 175.292951,15.7565269 175.035041,16.2020075 L171.916676,21.1726362 L169.103113,21.1726362 C167.344636,18.452858 166.312996,15.8268658 166.312996,13.2477662 C166.664691,6.04973335 172.315264,1.24322943 178.903691,1.3135685 Z" transform="translate(-164 1)"/>
</svg>
