<svg xmlns="http://www.w3.org/2000/svg" viewBox="0 0 40 47">
  <g fill="#3BB338" stroke="#3BB338" stroke-width=".8" opacity=".902" transform="translate(1 1)">
    <path d="M21.1851563,4.90078125 L19.6875,4.90078125 L19.6875,3.403125 C19.6875,3.01479979 19.3727002,2.7 18.984375,2.7 C18.5960498,2.7 18.28125,3.01479979 18.28125,3.403125 L18.28125,4.90078125 L16.7835938,4.90078125 C16.3952685,4.90078126 16.0804688,5.21558104 16.0804688,5.60390625 C16.0804688,5.99223146 16.3952685,6.30703124 16.7835938,6.30703125 L18.28125,6.30703125 L18.28125,7.8046875 C18.28125,8.19301271 18.5960498,8.5078125 18.984375,8.5078125 C19.3727002,8.5078125 19.6875,8.19301271 19.6875,7.8046875 L19.6875,6.30703125 L21.1851563,6.30703125 C21.5734815,6.30703125 21.8882813,5.99223146 21.8882813,5.60390625 C21.8882813,5.21558104 21.5734815,4.90078125 21.1851563,4.90078125 Z"/>
    <path d="M25.5585938,26.7925781 C25.5054656,26.7631159 25.4487432,26.7406633 25.3898438,26.7257813 C24.6443663,26.454554 23.8822538,26.2314394 23.1082031,26.0578125 C26.389304,24.4695652 28.4743383,21.1460724 28.4765625,17.5007813 L28.4765625,4.70390625 C28.4746376,2.11092299 26.3761755,0.00774531678 23.7832031,0 L14.1855469,0 C11.5925745,0.00774531678 9.49411244,2.11092299 9.4921875,4.70390625 L9.4921875,17.5007813 C9.4950208,21.1497289 11.584746,24.4755333 14.8710938,26.0613281 C14.0901511,26.2306192 13.3209691,26.4502177 12.5683594,26.71875 C12.5170356,26.7330143 12.467499,26.7530648 12.4207031,26.7785156 C5.12397897,29.5234891 0.29033151,36.5009125 0.284765625,44.296875 C0.284765625,44.6852002 0.59956541,45 0.987890625,45 C1.37621584,45 1.69101562,44.6852002 1.69101562,44.296875 C1.6961405,37.6579722 5.49688279,31.6065567 11.475,28.7191406 C11.095441,30.1636257 10.8274643,31.6351467 10.6734375,33.1207031 C8.4772107,33.4907527 6.86752033,35.3900091 6.8625,37.6171875 L6.8625,43.0066406 C6.89570548,43.1214759 6.89570548,43.2433678 6.8625,43.3582031 C6.8625,44.2649425 7.5975575,45 8.50429687,45 C8.89262209,45 9.20742187,44.6852002 9.20742187,44.296875 C9.20742187,43.9085498 8.89262209,43.59375 8.50429687,43.59375 C8.37420793,43.59375 8.26875,43.4882921 8.26875,43.3582031 C8.23554452,43.2433678 8.23554452,43.1214759 8.26875,43.0066406 L8.26875,37.6171875 C8.26875,35.869724 9.68534903,34.453125 11.4328125,34.453125 C13.180276,34.453125 14.596875,35.869724 14.596875,37.6171875 L14.596875,43.0066406 C14.6300805,43.1214759 14.6300805,43.2433678 14.596875,43.3582031 C14.596875,43.4882921 14.4914171,43.59375 14.3613281,43.59375 C13.9730029,43.59375 13.6582031,43.9085498 13.6582031,44.296875 C13.6582031,44.6852002 13.9730029,45 14.3613281,45 C15.2680675,45 16.003125,44.2649425 16.003125,43.3582031 C15.9699195,43.2433678 15.9699195,43.1214759 16.003125,43.0066406 L16.003125,37.6171875 C15.997059,35.3516667 14.3322031,33.4325201 12.0902344,33.1066406 C12.2589844,31.640625 12.65625,29.1972656 13.2292969,27.9914063 L13.3382813,27.9527344 L18.4183594,34.8820313 C18.5507465,35.0632628 18.7616975,35.1704056 18.9861328,35.1704056 C19.2105681,35.1704056 19.4215191,35.0632628 19.5539063,34.8820313 L24.6269531,27.9527344 L24.7605469,27.9984375 C26.0015625,30.1535156 26.5007813,33.4546875 26.6625,34.8539063 C24.9749274,35.2476997 23.8571545,36.8522325 24.0725547,38.5717025 C24.287955,40.2911726 25.7669804,41.5704011 27.4995431,41.5357498 C29.2321059,41.5010985 30.6587999,40.1637557 30.8052765,38.4370481 C30.9517532,36.7103405 29.7707185,35.1517839 28.06875,34.8257813 C27.8663332,32.7787777 27.4129297,30.7644386 26.71875,28.828125 C32.580185,31.7570428 36.2855421,37.7443991 36.2917969,44.296875 C36.2917969,44.6852002 36.6065967,45 36.9949219,45 C37.3832471,45 37.6980469,44.6852002 37.6980469,44.296875 C37.6860817,36.505169 32.8518934,29.5345858 25.5585938,26.7925781 Z M29.4257813,38.1515625 C29.4257194,39.2438801 28.5422362,40.1304183 27.4499253,40.1342506 C26.3576145,40.1380829 25.4679323,39.2577658 25.4602059,38.1654755 C25.4524794,37.0731853 26.3296192,36.1803704 27.421875,36.16875 C27.9492905,36.1668822 28.4557956,36.3748481 28.8297249,36.746799 C29.2036543,37.1187498 29.4143042,37.6241445 29.4152344,38.1515625 L29.4257813,38.1515625 Z M27.0703125,13.4929688 C22.7039063,13.3347656 20.0039063,12.009375 18.5695313,11.0074219 L27.0703125,11.0074219 L27.0703125,13.4929688 Z M10.8984375,4.70390625 C10.9003554,2.8875689 12.369225,1.41398632 14.1855469,1.40625 L23.7832031,1.40625 C25.599525,1.41398632 27.0683946,2.8875689 27.0703125,4.70390625 L27.0703125,9.59765625 L10.8984375,9.59765625 L10.8984375,4.70390625 Z M10.8984375,17.5007813 L10.8984375,11.0039063 L16.4003906,11.0039063 C17.2441406,11.9039063 20.390625,14.6742188 27.0703125,14.8992188 L27.0703125,17.5007813 C27.0703125,21.9713753 23.44618,25.5955078 18.9755859,25.5955078 C14.5049919,25.5955078 10.8808594,21.9713753 10.8808594,17.5007813 L10.8984375,17.5007813 Z M18.984375,33.2753906 L14.765625,27.5238281 C17.5349324,26.826751 20.4338176,26.826751 23.203125,27.5238281 L18.984375,33.2753906 Z"/>
  </g>
</svg>
