<svg xmlns="http://www.w3.org/2000/svg" viewBox="0 0 50 47">
  <path fill="#3BB338" stroke="#3BB338" d="M180.909871,24.3347639 L198.291845,24.3347639 L198.291845,17.5751073 L184.560086,17.5751073 L183.864807,17.5751073 L183.864807,16.9957082 L183.864807,0.579399142 L183.864807,0 L184.560086,0 L213.240343,0 L213.761803,0 L213.761803,0.579399142 L213.761803,16.9957082 L213.761803,17.5751073 L213.240343,17.5751073 L199.508584,17.5751073 L199.508584,24.3347639 L216.716738,24.3347639 L216.716738,24.9141631 L216.716738,30.7081545 L222.10515,30.7081545 L222.626609,30.7081545 L222.626609,31.2875536 L222.626609,44.4206009 L222.626609,45 L222.10515,45 L210.285408,45 L209.763948,45 L209.763948,44.4206009 L209.763948,31.2875536 L209.763948,30.7081545 L210.285408,30.7081545 L215.5,30.7081545 L215.5,25.6866953 L199.508584,25.6866953 L199.508584,30.5150215 L204.723176,30.5150215 L205.418455,30.5150215 L205.418455,31.2875536 L205.418455,44.2274678 L205.418455,45 L204.723176,45 L193.077253,45 L192.381974,45 L192.381974,44.2274678 L192.381974,31.2875536 L192.381974,30.5150215 L193.077253,30.5150215 L198.291845,30.5150215 L198.291845,25.6866953 L182.126609,25.6866953 L182.126609,30.5150215 L187.341202,30.5150215 L188.036481,30.5150215 L188.036481,31.2875536 L188.036481,44.2274678 L188.036481,45 L187.341202,45 L175.521459,45 L175,45 L175,44.2274678 L175,31.2875536 L175,30.5150215 L175.521459,30.5150215 L180.909871,30.5150215 L180.909871,25.6866953 L180.909871,24.3347639 Z M212.545064,1.35193133 L185.081545,1.35193133 L185.081545,16.223176 L212.545064,16.223176 L212.545064,1.35193133 Z M186.819742,31.8669528 L176.216738,31.8669528 L176.216738,43.6480687 L186.819742,43.6480687 L186.819742,31.8669528 Z M204.201717,31.8669528 L193.598712,31.8669528 L193.598712,43.6480687 L204.201717,43.6480687 L204.201717,31.8669528 Z M221.409871,32.0600858 L210.980687,32.0600858 L210.980687,43.6480687 L221.409871,43.6480687 L221.409871,32.0600858 Z" transform="translate(-174 1)"/>
</svg>
