<?xml version="1.0" standalone="no"?>
<!DOCTYPE svg PUBLIC "-//W3C//DTD SVG 20010904//EN"
 "http://www.w3.org/TR/2001/REC-SVG-20010904/DTD/svg10.dtd">
<svg version="1.0" xmlns="http://www.w3.org/2000/svg"
 width="980.000000pt" height="968.000000pt" viewBox="0 0 980.000000 968.000000"
 preserveAspectRatio="xMidYMid meet">

<g transform="translate(0.000000,968.000000) scale(0.100000,-0.100000)"
fill="#000000" stroke="none">
<path d="M3105 9664 c-250 -25 -374 -47 -599 -109 -434 -119 -876 -351 -1232
-646 -212 -175 -496 -477 -646 -685 -215 -300 -392 -665 -493 -1017 -96 -338
-122 -503 -131 -842 -13 -456 30 -792 152 -1183 184 -592 547 -1131 1062
-1580 400 -348 875 -592 1428 -731 244 -62 435 -81 793 -81 359 0 564 21 806
81 411 102 862 302 1183 526 l93 65 47 -44 c26 -23 445 -414 932 -868 1366
-1274 1606 -1497 1880 -1751 310 -286 695 -637 773 -702 192 -165 494 -86 609
158 53 113 46 261 -15 350 -34 49 -343 359 -632 634 -148 141 -697 657 -1220
1146 -1342 1255 -1660 1561 -1719 1649 l-26 38 42 57 c390 535 611 1075 673
1641 22 203 30 610 16 798 -37 484 -216 1025 -478 1451 -360 585 -927 1089
-1531 1360 -300 136 -626 233 -892 266 -119 15 -771 29 -875 19z m560 -414
c328 -24 589 -82 880 -197 997 -393 1703 -1252 1884 -2293 37 -210 45 -313 45
-540 0 -245 -10 -349 -54 -570 -54 -271 -129 -490 -260 -755 -153 -311 -330
-556 -585 -810 -278 -277 -587 -488 -927 -634 -465 -200 -902 -269 -1448 -231
-281 20 -525 71 -785 165 -158 56 -433 190 -575 280 -731 461 -1238 1217
-1384 2061 -51 293 -42 763 20 1104 76 422 309 918 604 1290 107 135 356 382
490 487 363 281 728 459 1175 572 127 32 320 68 395 74 102 8 394 6 525 -3z"/>
</g>
</svg>
