<svg xmlns="http://www.w3.org/2000/svg" viewBox="0 0 46 34">
    <path
        d="M209.083333,264 L166.916667,264 C166.366667,264 166,264.4 166,265 L166,295 C166,295.6 166.366667,296 166.916667,296 L209.083333,296 C209.633333,296 210,295.6 210,295 L210,265 C210,264.4 209.633333,264 209.083333,264 Z M208.166667,266 L208.166667,272.3 L188,281.9 L167.833333,272.3 L167.833333,266 L208.166667,266 Z M167.833333,294 L167.833333,274.5 L187.633333,283.9 C187.908333,284 188.091667,284 188.366667,283.9 L208.166667,274.5 L208.166667,294 L167.833333,294 Z"
        transform="translate(-165 -263)"
    />
</svg>