<svg xmlns="http://www.w3.org/2000/svg" viewBox="0 0 18 17">
  <path fill="#FFF" stroke="#FFF" stroke-width=".5" d="M15.1337247,68.7520861 C14.9809545,66.0924822 12.2803895,63.9999394 9.00076489,63.9999394 C5.72114026,63.9999394 3.02057526,66.0924822 2.86780507,68.7520861 C1.79957553,68.8674707 1.00126253,69.6066311 1,70.4814925 L1,73.3783796 C1.00173222,74.3183564 1.91940494,75.0886772 3.07655122,75.1214963 C3.69181743,76.9471347 5.52478154,78.3338993 7.81130397,78.7036656 C7.90311748,79.0609794 8.29878421,79.3125578 8.74809676,79.2993104 C9.19740931,79.2860629 9.56955419,79.0118465 9.6291985,78.650067 C9.68884281,78.2882876 9.41862161,77.9442742 8.98941443,77.8355702 C8.56020726,77.7268662 8.09697408,77.8851199 7.89264923,78.2102565 C5.88775082,77.8735852 4.27453296,76.66739 3.69660593,75.0728952 C4.65788479,74.8811705 5.33422141,74.1819787 5.33573127,73.3783796 L5.33573127,70.4814925 C5.33432634,69.6113602 4.54460154,68.874632 3.48324994,68.7533267 C3.63419105,66.3688349 6.05970388,64.4983267 9.00076489,64.4983267 C11.9418259,64.4983267 14.3673387,66.3688349 14.5182798,68.7533267 C13.4560656,68.873688 12.6652797,69.6107974 12.6642687,70.4814925 L12.6642687,73.3783796 C12.6655723,74.341323 13.6268039,75.1216792 14.8129448,75.1227382 L14.8513129,75.1227382 C16.0374578,75.1216834 16.9986956,74.3413262 17,73.3783796 L17,70.4814925 C16.9988513,69.6070412 16.2013526,68.8680295 15.1337247,68.7520861 Z M4.7218209,70.4814925 L4.7218209,73.3783796 C4.72102567,73.9504902 4.2407652,74.4487624 3.55691875,74.5869702 C3.43607927,74.6121094 3.31179234,74.6246709 3.18704891,74.6243525 L3.14868079,74.6243525 C3.07931513,74.6246328 3.0100306,74.6204637 2.94147387,74.611884 C2.1814537,74.5277867 1.6145954,74.0010905 1.61391116,73.3783796 L1.61391116,70.4814925 C1.61544073,69.8837516 2.13859918,69.370743 2.86166232,69.2579489 C2.95620773,69.2429041 3.05233717,69.235392 3.14868158,69.2355196 L3.1870497,69.2355196 C3.28389247,69.2353905 3.3805215,69.2429023 3.47557427,69.2579489 C4.19832882,69.3708592 4.7209644,69.8839748 4.72181853,70.4814925 L4.7218209,70.4814925 Z M16.386088,73.3783796 C16.3846955,74.0660438 15.698367,74.6232237 14.8513113,74.6243525 L14.8129432,74.6243525 C13.9658891,74.623222 13.279563,74.0660426 13.2781704,73.3783796 L13.2781704,70.4814925 C13.279563,69.7938294 13.9658891,69.2366501 14.8129432,69.2355196 L14.8513113,69.2355196 C15.6983654,69.2366501 16.3846916,69.7938294 16.3860841,70.4814925 L16.386088,73.3783796 Z" opacity=".9" transform="translate(0 -63)"/>
</svg>
