<svg xmlns="http://www.w3.org/2000/svg" viewBox="0 0 40 40">
  <path fill="#FFF" d="M19.9996581,0.227692308 C9.08,0.227692308 0.227692308,9.08034188 0.227692308,20 C0.227692308,30.9196581 9.08,39.7723077 19.9996581,39.7723077 C30.9193162,39.7723077 39.7726496,30.9193162 39.7726496,20 C39.7726496,9.08 30.9193162,0.227692308 19.9996581,0.227692308 Z M17.2611966,23.3747009 L13.2988034,27.337094 L15.3507692,27.337094 C15.7282051,27.337094 16.0345299,27.6434188 16.0345299,28.0208547 C16.0345299,28.3982906 15.7282051,28.7046154 15.3507692,28.7046154 L11.6482051,28.7046154 C11.6034188,28.7046154 11.5586325,28.6998291 11.514188,28.6912821 C11.4940171,28.6871795 11.4752137,28.6796581 11.4557265,28.6738462 C11.4324786,28.6666667 11.4088889,28.6615385 11.3863248,28.6523077 C11.3637607,28.6430769 11.3432479,28.6300855 11.3217094,28.6181197 C11.3042735,28.608547 11.285812,28.6006838 11.2687179,28.5894017 C11.2150427,28.5535043 11.168547,28.5083761 11.1271795,28.4588034 C10.9781197,28.3336752 10.8813675,28.1480342 10.8813675,27.9381197 L10.8813675,24.2355556 C10.8813675,23.8581197 11.1876923,23.5517949 11.5651282,23.5517949 C11.9425641,23.5517949 12.2488889,23.8581197 12.2488889,24.2355556 L12.2488889,26.4529915 L16.2940171,22.4078632 C16.5606838,22.1408547 16.994188,22.1408547 17.2608547,22.4078632 C17.528547,22.6748718 17.528547,23.1076923 17.2611966,23.3747009 Z M17.2611966,17.5117949 C17.1278632,17.6454701 16.9528205,17.7121368 16.7777778,17.7121368 C16.602735,17.7121368 16.4280342,17.6454701 16.294359,17.5117949 L12.2492308,13.4670085 L12.2492308,15.6844444 C12.2492308,16.0618803 11.942906,16.3682051 11.5654701,16.3682051 C11.1880342,16.3682051 10.8817094,16.0618803 10.8817094,15.6844444 L10.8817094,11.9818803 C10.8817094,11.7719658 10.9784615,11.5863248 11.1275214,11.4608547 C11.1688889,11.4116239 11.2150427,11.3664957 11.2690598,11.3305983 C11.2864957,11.3189744 11.305641,11.3107692 11.3241026,11.3008547 C11.3449573,11.2895726 11.3647863,11.2769231 11.3866667,11.2680342 C11.4099145,11.2584615 11.4345299,11.2526496 11.4584615,11.245812 C11.477265,11.2403419 11.4950427,11.2331624 11.5145299,11.2294017 C11.5586325,11.2205128 11.6034188,11.2157265 11.648547,11.2157265 L15.3511111,11.2157265 C15.728547,11.2157265 16.0348718,11.5220513 16.0348718,11.8994872 C16.0348718,12.2769231 15.728547,12.5832479 15.3511111,12.5832479 L13.2991453,12.5832479 L17.2615385,16.5452991 C17.528547,16.8119658 17.528547,17.2447863 17.2611966,17.5117949 Z M22.6974359,16.5452991 L26.6598291,12.582906 L24.6078632,12.582906 C24.2304274,12.582906 23.9241026,12.2765812 23.9241026,11.8991453 C23.9241026,11.5217094 24.2304274,11.2153846 24.6078632,11.2153846 L28.3104274,11.2153846 C28.3552137,11.2153846 28.4003419,11.2201709 28.4444444,11.2290598 C28.4649573,11.2331624 28.4837607,11.2406838 28.5035897,11.2464957 C28.5264957,11.2533333 28.5497436,11.2584615 28.5719658,11.2676923 C28.5952137,11.277265 28.6167521,11.2905983 28.6386325,11.302906 C28.6557265,11.3121368 28.6735043,11.3196581 28.6892308,11.3305983 C28.7432479,11.3664957 28.7897436,11.4116239 28.8311111,11.4611966 C28.9801709,11.5866667 29.0769231,11.7723077 29.0769231,11.9822222 L29.0769231,15.6847863 C29.0769231,16.0622222 28.7705983,16.368547 28.3931624,16.368547 C28.0157265,16.368547 27.7094017,16.0622222 27.7094017,15.6847863 L27.7094017,13.4673504 L23.6642735,17.5121368 C23.5305983,17.645812 23.3558974,17.7124786 23.1808547,17.7124786 C23.005812,17.7124786 22.8311111,17.645812 22.6974359,17.5121368 C22.4300855,17.2451282 22.4300855,16.8123077 22.6974359,16.5452991 Z M29.1182906,27.9381197 C29.1182906,28.1480342 29.0215385,28.3336752 28.8724786,28.4588034 C28.8311111,28.5083761 28.7846154,28.5535043 28.7305983,28.5894017 C28.7145299,28.6003419 28.6967521,28.6078632 28.68,28.617094 C28.6581197,28.6290598 28.6365812,28.6423932 28.6133333,28.6526496 C28.5911111,28.6615385 28.5678632,28.6670085 28.5449573,28.6738462 C28.5251282,28.6796581 28.5063248,28.6871795 28.485812,28.6916239 C28.4417094,28.7001709 28.3965812,28.7049573 28.3517949,28.7049573 L24.6492308,28.7049573 C24.2717949,28.7049573 23.9654701,28.3986325 23.9654701,28.0211966 C23.9654701,27.6437607 24.2717949,27.3374359 24.6492308,27.3374359 L26.7011966,27.3374359 L22.7388034,23.3750427 C22.4717949,23.1080342 22.4717949,22.6752137 22.7388034,22.4082051 C23.005812,22.1411966 23.4386325,22.1411966 23.705641,22.4082051 L27.7507692,26.4533333 L27.7507692,24.2358974 C27.7507692,23.8584615 28.057094,23.5521368 28.4345299,23.5521368 C28.8119658,23.5521368 29.1182906,23.8584615 29.1182906,24.2358974 L29.1182906,27.9381197 Z"/>
</svg>
