<svg xmlns="http://www.w3.org/2000/svg" viewBox="0 0 51 50">
  <path fill="#FFF" stroke="#FFF" stroke-width=".4" d="M26.9037356,0.210678161 C26.6289756,0.263101695 26.4318523,0.505702865 26.4367816,0.785362069 L26.4367816,3.78449425 C25.5428661,3.99941954 24.5926172,4.26156322 23.7068966,4.7003908 L21.6774425,2.67104023 C21.5691583,2.5591278 21.4200956,2.4959414 21.2643678,2.4959414 C21.10864,2.4959414 20.9595773,2.5591278 20.8512931,2.67104023 L16.8283046,6.69382759 C16.6191326,6.90353057 16.6035823,7.23784497 16.7923851,7.46605747 L18.8936782,10.088046 C18.5054885,10.797931 18.2312322,11.4965977 18.0136494,12.2790287 L14.9425287,12.2790287 C14.6251366,12.2790605 14.3678474,12.5363367 14.3678161,12.8537126 L14.3678161,18.600546 C14.3678506,18.9179196 14.6251388,19.1751924 14.9425287,19.1752241 L17.9418103,19.1752241 C18.1548109,20.0612069 18.4434178,21.0087931 18.8757184,21.8870115 L16.8283046,23.9343103 C16.6069222,24.1582189 16.6069222,24.5185627 16.8283046,24.7424713 L20.8512931,28.7652299 C20.9595773,28.8771423 21.10864,28.9403287 21.2643678,28.9403287 C21.4200956,28.9403287 21.5691583,28.8771423 21.6774425,28.7652299 L23.7068966,26.7359195 C24.5929431,27.1748851 25.5426023,27.4547701 26.4367816,27.6697701 L26.4367816,30.668908 C26.4368288,30.9862727 26.6941133,31.2435315 27.0114943,31.2435632 L29.8850575,31.2435632 L32.7586207,31.2435632 C33.0760016,31.2435315 33.3332861,30.9862727 33.3333333,30.668908 L33.3333333,27.6697701 C34.2275126,27.4547701 35.1771718,27.1748851 36.0632184,26.7359195 L38.0926724,28.7652299 C38.2009566,28.8771423 38.3500193,28.9403287 38.5057471,28.9403287 C38.6614749,28.9403287 38.8105376,28.8771423 38.9188218,28.7652299 L42.9418103,24.7424713 C43.1631927,24.5185627 43.1631927,24.1582189 42.9418103,23.9343103 L40.8943966,21.8870115 C41.3266971,21.0087931 41.615304,20.0612069 41.8283046,19.1752241 L44.8275862,19.1752241 C45.1449761,19.1751924 45.4022643,18.9179196 45.4022989,18.600546 L45.4022989,12.8537126 C45.4022675,12.5363367 45.1449784,12.2790605 44.8275862,12.2790287 L41.7564655,12.2790287 C41.5388828,11.4965977 41.2646264,10.797931 40.8764368,10.088046 L42.9777299,7.46605747 C43.1665327,7.23784497 43.1509824,6.90353057 42.9418103,6.69382759 L38.9188218,2.67104023 C38.8105376,2.5591278 38.6614749,2.4959414 38.5057471,2.4959414 C38.3500193,2.4959414 38.2009566,2.5591278 38.0926724,2.67104023 L36.0632184,4.7003908 C35.1774977,4.26156322 34.2272489,3.99941954 33.3333333,3.78449425 L33.3333333,0.785362069 C33.333302,0.467986167 33.0760128,0.210709894 32.7586207,0.210678161 L29.8850575,0.210678161 L27.0114943,0.210678161 C26.975654,0.207303784 26.9395759,0.207303784 26.9037356,0.210678161 Z M27.5862069,1.36004598 L29.8850575,1.36004598 L32.183908,1.36004598 L32.183908,4.23346552 C32.1837963,4.49562092 32.3611037,4.72463116 32.6149425,4.79018966 C33.7721822,5.07825287 35.0666994,5.35492529 35.9195402,5.86771839 C36.1460462,6.0016427 36.4345762,5.96465403 36.6199713,5.77792529 L38.5057471,3.89224713 L41.7564655,7.14279885 L39.7808908,9.62112069 C39.6371035,9.80873667 39.622852,10.0652501 39.7449713,10.2676379 C40.3088736,11.2053563 40.5454115,11.8661609 40.8225575,12.9794253 C40.8810764,13.2403821 41.1118664,13.4264935 41.3793103,13.4283966 L44.2528736,13.4283966 L44.2528736,18.0258621 L41.3793103,18.0258621 C41.1171417,18.0257501 40.8881197,18.203048 40.8225575,18.4568736 C40.5344787,19.614069 40.2577902,20.8905977 39.7449713,21.7433448 C39.6063743,21.9658696 39.6359254,22.2539768 39.8168103,22.4437356 L41.7025862,24.3473563 L38.5057471,27.544023 L36.6199713,25.6583908 C36.4345847,25.4716507 36.1460538,25.4346477 35.9195402,25.5685632 C35.0666793,26.0813218 33.7721718,26.3760345 32.6149425,26.6640805 C32.3611037,26.729639 32.1837963,26.9586492 32.183908,27.2208046 L32.183908,30.0941954 L29.8850575,30.0941954 L27.5862069,30.0941954 L27.5862069,27.2208046 C27.5863186,26.9586492 27.4090112,26.729639 27.1551724,26.6640805 C25.9979431,26.3760345 24.7034356,26.0813218 23.8505747,25.5685632 C23.6240611,25.4346477 23.3355302,25.4716507 23.1501437,25.6583908 L21.2643678,27.544023 L18.0675287,24.3473563 L19.9533046,22.4437356 C20.1341895,22.2539768 20.1637407,21.9658696 20.0251437,21.7433448 C19.5123247,20.8905977 19.2356362,19.614069 18.9475575,18.4568736 C18.8819952,18.203048 18.6529732,18.0257501 18.3908046,18.0258621 L15.5172414,18.0258621 L15.5172414,13.4283966 L18.3908046,13.4283966 C18.6582485,13.4264935 18.8890385,13.2403821 18.9475575,12.9794253 C19.2247034,11.8661609 19.4612414,11.2053563 20.0251437,10.2676379 C20.147263,10.0652501 20.1330115,9.80873667 19.9892241,9.62112069 L18.0136494,7.14279885 L21.2643678,3.89224713 L23.1501437,5.77792529 C23.3355387,5.96465403 23.6240687,6.0016427 23.8505747,5.86771839 C24.7034155,5.35492529 25.9979328,5.07825287 27.1551724,4.79018966 C27.4090112,4.72463116 27.5863186,4.49562092 27.5862069,4.23346552 L27.5862069,1.36004598 Z M29.8850575,9.4056092 C26.4004092,9.4056092 23.5632184,12.2426609 23.5632184,15.7271264 C23.5632184,19.211592 26.4004092,22.0486437 29.8850575,22.0486437 C33.3697057,22.0486437 36.2068966,19.211592 36.2068966,15.7271264 C36.2068966,12.2426609 33.3697057,9.4056092 29.8850575,9.4056092 Z M29.8850575,10.554977 C32.7485098,10.554977 35.0574713,12.8638276 35.0574713,15.7271264 C35.0574713,18.590431 32.7485098,20.8992759 29.8850575,20.8992759 C27.0216052,20.8992759 24.7126437,18.590431 24.7126437,15.7271264 C24.7126437,12.8638276 27.0216052,10.554977 29.8850575,10.554977 Z M0.466954023,27.2208046 C0.192204869,27.2732263 -0.00491517196,27.5158113 -3.1940596e-16,27.7954598 L-3.1940596e-16,43.8866092 C4.7222392e-05,44.2039739 0.257331713,44.4612326 0.574712644,44.4612644 L8.04597701,44.4612644 C8.36335794,44.4612326 8.62064243,44.2039739 8.62068966,43.8866092 L8.62068966,43.8147701 C13.2238017,46.9645977 16.5097443,49.6333908 24.7126437,49.6334483 C29.227358,49.6334483 34.7178299,47.2808621 39.1343391,44.9641379 C43.5508483,42.6474138 46.875,40.3307471 46.875,40.3307471 C47.7493305,39.747931 48.3772149,39.2909195 48.8146552,38.6785632 C49.2520954,38.0661494 49.4252874,37.3416092 49.4252874,36.4157471 C49.4252874,35.6973563 49.1331264,35.0883908 48.7068966,34.6737356 C48.2806667,34.2589655 47.7386161,34.0083333 47.2162356,33.8475862 C46.1714747,33.5262069 45.1149425,33.5422989 44.8275862,33.5422989 C43.5824994,33.5422989 42.1388638,34.1563218 40.9303161,34.7455747 C39.8249408,35.2843678 39.0975862,35.7170115 38.9547414,35.8051149 C38.6569914,34.205 37.3169776,32.9676437 35.6321839,32.9676437 L24.9281609,32.9676437 C23.3482603,31.5001149 20.9820167,30.6598276 18.1393678,30.1660345 C15.3432,29.6803448 12.0718534,29.5335632 8.62068966,29.5195402 L8.62068966,27.7954598 C8.62064243,27.4780951 8.36335794,27.2208363 8.04597701,27.2208046 L0.574712644,27.2208046 C0.538872361,27.2174302 0.502794306,27.2174302 0.466954023,27.2208046 Z M1.14942529,28.3701724 L7.47126437,28.3701724 L7.47126437,30.0403448 C7.47041754,30.0583425 7.47041754,30.0763701 7.47126437,30.0943678 L7.47126437,42.7374138 C7.46976625,42.7613367 7.46976625,42.7853299 7.47126437,42.8092529 L7.47126437,43.312069 L1.14942529,43.312069 L1.14942529,28.3703448 L1.14942529,28.3701724 Z M8.62068966,30.6868391 C12.033469,30.7023563 15.2600029,30.8316092 17.9418103,31.2974713 C20.7791132,31.7902299 23.0022782,32.6401724 24.299569,33.9374138 C24.4070901,34.0509832 24.5562508,34.1158357 24.7126437,34.1170115 L35.6321839,34.1170115 C36.9156741,34.1170115 37.9310345,35.1322989 37.9310345,36.4157471 C37.9310345,37.6991379 36.9156879,38.7144828 35.6321839,38.7144828 L18.9655172,38.7144828 C18.7582666,38.7115694 18.5655001,38.8204619 18.4610246,38.9994673 C18.3565491,39.1784726 18.3565491,39.3998607 18.4610246,39.5788661 C18.5655001,39.7578714 18.7582666,39.8667639 18.9655172,39.8638506 L35.6321839,39.8638506 C37.3339138,39.8638506 38.6945954,38.5963793 38.9727011,36.9724713 C39.114527,37.0013887 39.2620422,36.9757339 39.3857759,36.9006322 C39.3857759,36.9006322 40.2839989,36.3294253 41.4331897,35.7691954 C42.5823805,35.209023 44.0093971,34.6916667 44.8275862,34.6916667 C45.1149425,34.6916667 46.0699017,34.6916667 46.8929598,34.9431034 C47.3044891,35.0697126 47.6604241,35.2679885 47.8987069,35.4998276 C48.1369897,35.7317241 48.2758621,35.9847126 48.2758621,36.4157471 C48.2758621,37.213908 48.1616977,37.6208046 47.8807471,38.0140805 C47.5997966,38.4073563 47.0782557,38.8124713 46.2284483,39.378908 C46.2284483,39.378908 42.9434103,41.6597126 38.595546,43.9404598 C34.2476816,46.2211494 28.8186764,48.4840805 24.7126437,48.4840805 C16.3717138,48.484023 13.652858,45.818908 8.62068966,42.431954 L8.62068966,30.6868391 Z" opacity=".902" transform="translate(1)"/>
</svg>
