<svg xmlns="http://www.w3.org/2000/svg" viewBox="0 0 13 13">
  <path fill="#FFF" d="M214.788453,30.452429 C215.342431,29.8838727 215.342431,29.1257977 214.788453,28.5718198 L213.272303,27.0556697 C213.009892,26.7786807 212.689168,26.632897 212.339287,26.632897 C212.003985,26.632897 211.683261,26.7786807 211.406272,27.0556697 L210.53157,27.9303716 C210.458678,27.8866365 210.385786,27.8574798 210.312894,27.8137447 C210.210846,27.7700096 210.123376,27.7116961 210.035905,27.667961 C209.219517,27.1577182 208.47602,26.472535 207.776259,25.6124114 C207.426378,25.1750604 207.193124,24.8106012 207.032762,24.4315637 C207.251437,24.2274666 207.470113,24.0087911 207.67421,23.804694 C207.747102,23.7318021 207.834572,23.6443319 207.907464,23.5714401 C208.184453,23.2944511 208.344815,22.9591487 208.344815,22.6238463 C208.344815,22.2885439 208.199031,21.9678198 207.907464,21.6762525 L207.163967,20.9181774 C207.076497,20.8307072 206.989027,20.743237 206.916135,20.6557668 C206.755773,20.4808264 206.580833,20.305886 206.405892,20.145524 C206.143482,19.8831134 205.822758,19.7373297 205.487455,19.7373297 C205.152153,19.7373297 204.831429,19.8831134 204.55444,20.145524 L203.606846,21.0931178 C203.256965,21.4429986 203.052868,21.8657712 203.009133,22.3614357 C202.950819,23.1632458 203.184073,23.9067425 203.359014,24.402407 C203.796365,25.597833 204.466969,26.7203672 205.458298,27.9157933 C206.668303,29.3590515 208.111561,30.4815858 209.758916,31.2833959 C210.385786,31.5895416 211.231331,31.9394224 212.178925,31.9977359 C212.237239,31.9977359 212.295552,31.9977359 212.353866,31.9977359 C212.980735,31.9977359 213.520135,31.764482 213.928329,31.3125526 C213.928329,31.3125526 213.942908,31.2979743 213.942908,31.2979743 C214.088691,31.1230339 214.249053,30.9626718 214.423994,30.8023098 C214.555199,30.7002613 214.671826,30.5836343 214.788453,30.452429 Z M209.72976,21.6470957 C209.758916,21.4429986 209.948435,21.3117933 210.152532,21.3555284 C211.027234,21.5013121 211.814466,21.9095063 212.441336,22.5509544 C213.068206,23.1924026 213.4764,23.9796344 213.636762,24.839758 C213.665919,25.0438551 213.534713,25.2333739 213.345195,25.2625306 C213.330616,25.2625306 213.301459,25.2625306 213.286881,25.2625306 C213.111941,25.2625306 212.951579,25.1313253 212.922422,24.9563849 C212.805795,24.2420449 212.455914,23.5714401 211.931093,23.0611973 C211.406272,22.5363761 210.750245,22.2010737 210.035905,22.0698684 C209.81723,22.0407116 209.686025,21.8511929 209.72976,21.6470957 Z M215.269539,24.8543363 C215.050863,23.5714401 214.438572,22.4051708 213.520135,21.4721553 C212.58712,20.5391399 211.42085,19.9414269 210.137954,19.7227514 C209.933857,19.6935946 209.802652,19.5040759 209.846387,19.2999787 C209.890122,19.0958816 210.065062,18.9646763 210.269159,19.0084114 C211.683261,19.2416653 212.995314,19.9122701 214.030378,20.9473341 C215.065442,21.9823982 215.750625,23.2944511 215.983879,24.723131 C216.013036,24.9272282 215.88183,25.1167469 215.692312,25.1459037 C215.677733,25.1459037 215.648576,25.1459037 215.633998,25.1459037 C215.459058,25.160482 215.298696,25.0292767 215.269539,24.8543363 Z" transform="translate(-203 -19)"/>
</svg>
