<?xml version="1.0" standalone="no"?>
<!DOCTYPE svg PUBLIC "-//W3C//DTD SVG 20010904//EN"
 "http://www.w3.org/TR/2001/REC-SVG-20010904/DTD/svg10.dtd">
<svg version="1.0" xmlns="http://www.w3.org/2000/svg"
 width="64.000000pt" height="64.000000pt" viewBox="0 0 64.000000 64.000000"
 preserveAspectRatio="xMidYMid meet">

<g transform="translate(0.000000,64.000000) scale(0.100000,-0.100000)"
fill="#000000" stroke="none">
<path d="M152 628 c-17 -17 -17 -599 0 -616 17 -17 319 -17 336 0 17 17 17
599 0 616 -17 17 -319 17 -336 0z m326 -30 c3 -17 -10 -18 -157 -18 -128 0
-161 3 -161 13 0 8 3 17 7 21 4 3 75 5 157 4 134 -3 151 -5 154 -20z m2 -258
l0 -210 -160 0 -160 0 0 210 0 210 160 0 160 0 0 -210z m-2 -272 l-3 -43 -155
0 -155 0 -3 43 -3 42 161 0 161 0 -3 -42z"/>
<path d="M260 600 c0 -6 27 -10 60 -10 33 0 60 4 60 10 0 6 -27 10 -60 10 -33
0 -60 -4 -60 -10z"/>
<path d="M430 600 c0 -5 7 -10 16 -10 8 0 12 5 9 10 -3 6 -10 10 -16 10 -5 0
-9 -4 -9 -10z"/>
<path d="M293 93 c-21 -8 -15 -51 7 -58 32 -10 60 4 60 30 0 27 -34 42 -67 28z
m47 -33 c0 -5 -9 -10 -20 -10 -11 0 -20 5 -20 10 0 6 9 10 20 10 11 0 20 -4
20 -10z"/>
</g>
</svg>
